<svg width="94" height="80" viewBox="0 0 94 80" fill="none" xmlns="http://www.w3.org/2000/svg">
<rect x="1" y="1" width="92" height="78" stroke="#FEE66A" stroke-width="2"/>
<path d="M2.63 27.0945L2.945 26.4645C3.008 26.4855 3.0815 26.496 3.1655 26.496C3.2495 26.496 3.3335 26.496 3.4175 26.496C4.0685 26.496 4.646 26.391 5.15 26.181C5.843 25.908 6.2525 25.509 6.3785 24.984C6.5675 24.165 6.662 21.939 6.662 18.306C6.662 11.355 6.4415 7.6275 6.0005 7.1235C5.6435 6.7875 5.1395 6.6195 4.4885 6.6195C4.3415 6.6195 4.1735 6.63 3.9845 6.651C3.7955 6.672 3.6065 6.7035 3.4175 6.7455L3.701 6.084C4.499 6.168 5.2235 6.231 5.8745 6.273C6.5465 6.315 7.166 6.336 7.733 6.336C7.985 6.336 8.2265 6.336 8.4575 6.336C8.7095 6.315 8.9405 6.294 9.1505 6.273C9.9065 6.189 10.5995 6.1365 11.2295 6.1155C11.8595 6.0735 12.4265 6.0525 12.9305 6.0525C17.9495 6.0525 21.4145 7.6275 23.3255 10.7775C23.8295 11.5965 24.197 12.468 24.428 13.392C24.68 14.316 24.806 15.282 24.806 16.29C24.806 17.991 24.47 19.6395 23.798 21.2355C23.147 22.7055 22.3595 23.787 21.4355 24.48C19.1675 26.181 16.3535 27.0315 12.9935 27.0315C12.6365 27.0315 12.269 27.021 11.891 27C11.513 26.979 11.1245 26.9475 10.7255 26.9055C10.0325 26.8425 9.203 26.811 8.237 26.811C6.704 26.811 4.835 26.9055 2.63 27.0945ZM13.3085 26.244C13.7705 26.244 14.201 26.2125 14.6 26.1495C16.763 25.8345 18.3905 25.1415 19.4825 24.0705C21.1205 22.4955 21.9395 20.007 21.9395 16.605C21.9395 16.521 21.929 16.4475 21.908 16.3845C21.908 16.3215 21.908 16.248 21.908 16.164C21.887 13.707 21.0785 11.607 19.4825 9.864C18.0125 8.268 16.259 7.3335 14.222 7.0605C13.886 7.0185 13.55 6.987 13.214 6.966C12.878 6.924 12.5525 6.903 12.2375 6.903C10.5995 6.903 9.6545 7.0605 9.4025 7.3755C9.0875 8.0265 8.93 10.347 8.93 14.337C8.93 14.715 8.93 15.114 8.93 15.534C8.93 15.933 8.9405 16.353 8.9615 16.794C8.9615 17.865 8.9825 19.0515 9.0245 20.3535C9.0665 21.6555 9.119 23.073 9.182 24.606C9.644 25.698 11.0195 26.244 13.3085 26.244ZM41.5852 27.2205C41.5222 27.2205 41.4487 27.2205 41.3647 27.2205C41.3017 27.2205 41.2282 27.21 41.1442 27.189C38.7922 27.021 36.9442 26.895 35.6002 26.811C34.2772 26.727 33.4687 26.685 33.1747 26.685C32.8387 26.685 32.5237 26.6955 32.2297 26.7165C31.9357 26.7165 31.6522 26.727 31.3792 26.748C31.1272 26.769 30.6127 26.811 29.8357 26.874C29.0587 26.916 28.0087 26.9895 26.6857 27.0945L26.9692 26.433C27.0322 26.454 27.1057 26.475 27.1897 26.496C27.2737 26.496 27.3577 26.496 27.4417 26.496C28.0507 26.496 28.6387 26.3805 29.2057 26.1495C29.9197 25.8765 30.3397 25.467 30.4657 24.921C30.6757 24.102 30.7807 21.897 30.7807 18.306C30.7807 16.542 30.7807 15.177 30.7807 14.211C30.7807 13.224 30.7702 12.636 30.7492 12.447C30.6862 9.234 30.4657 7.4385 30.0877 7.0605C29.6467 6.6615 28.9957 6.462 28.1347 6.462C28.0297 6.462 27.9142 6.4725 27.7882 6.4935C27.6622 6.4935 27.5362 6.4935 27.4102 6.4935L27.7252 5.895C28.7542 6.042 30.1612 6.1365 31.9462 6.1785L40.9237 6.084C41.1337 6.105 41.2387 6.2625 41.2387 6.5565C41.2387 6.6615 41.2177 6.798 41.1757 6.966C41.1547 7.134 41.1232 7.3335 41.0812 7.5645L40.7977 8.604L40.4827 10.4625L39.8527 10.305C40.1887 9.423 40.3567 8.835 40.3567 8.541C40.3567 7.89 39.7372 7.4805 38.4982 7.3125C38.2882 7.2915 38.0152 7.281 37.6792 7.281C37.3432 7.26 36.9547 7.2495 36.5137 7.2495H36.0097C35.4427 7.2495 34.9492 7.26 34.5292 7.281C34.1092 7.302 33.7732 7.3335 33.5212 7.3755C33.2062 8.5095 33.0487 11.229 33.0487 15.534L39.7267 15.471C39.9367 15.471 40.0417 15.597 40.0417 15.849C40.0417 15.933 40.0312 16.0485 40.0102 16.1955C39.9892 16.3215 39.9472 16.5 39.8842 16.731C39.8422 16.941 39.8002 17.1405 39.7582 17.3295C39.7372 17.4975 39.7267 17.634 39.7267 17.739C39.7267 17.781 39.7267 17.865 39.7267 17.991C39.7477 18.117 39.7582 18.285 39.7582 18.495L39.1282 18.6525L39.3172 17.9595C39.3172 17.0565 38.6767 16.5945 37.3957 16.5735C36.1357 16.5105 35.0857 16.479 34.2457 16.479C34.0357 16.479 33.8257 16.479 33.6157 16.479C33.4057 16.479 33.2167 16.4895 33.0487 16.5105C33.0697 20.9835 33.1957 23.787 33.4267 24.921C33.4897 25.32 33.6892 25.5825 34.0252 25.7085C34.2772 25.8135 34.9387 25.929 36.0097 26.055C36.4927 26.118 36.9967 26.1495 37.5217 26.1495C39.6427 26.1495 41.0497 25.8975 41.7427 25.3935C42.1207 25.1205 42.4987 24.6585 42.8767 24.0075C43.2547 23.3985 43.4752 22.8945 43.5382 22.4955L43.9792 22.653C43.7692 23.115 43.6012 23.598 43.4752 24.102C43.3492 24.585 43.2337 25.0995 43.1287 25.6455C43.0657 26.2335 42.9292 26.6325 42.7192 26.8425C42.5092 27.0945 42.1312 27.2205 41.5852 27.2205ZM44.4775 27.0945L44.761 26.433C45.307 26.349 45.7585 26.265 46.1155 26.181C46.4725 26.097 46.7455 26.0025 46.9345 25.8975C47.3965 25.6035 47.827 24.984 48.226 24.039L53.707 10.053C54.043 9.234 54.211 8.5515 54.211 8.0055C54.211 7.9635 54.2005 7.9215 54.1795 7.8795C54.1795 7.8375 54.169 7.764 54.148 7.659C54.127 7.617 54.1165 7.554 54.1165 7.47C54.1165 7.323 54.1795 7.1865 54.3055 7.0605C54.9985 6.4725 55.618 5.9895 56.164 5.6115C56.773 7.4595 57.3295 9.15 57.8335 10.683C58.3375 12.195 58.789 13.539 59.188 14.715L60.4165 18.0855C61.0465 19.8705 61.5925 21.351 62.0545 22.527C62.5375 23.703 62.926 24.564 63.22 25.11C63.514 25.698 64.081 26.0865 64.921 26.2755C65.194 26.2965 65.4565 26.3175 65.7085 26.3385C65.9815 26.3595 66.2545 26.3805 66.5275 26.4015L66.2125 27.0945C65.0155 27.0315 64.081 26.9895 63.409 26.9685C62.737 26.9475 62.317 26.937 62.149 26.937C62.002 26.937 61.729 26.937 61.33 26.937C60.931 26.937 60.427 26.958 59.818 27L57.7705 27.0945L58.0225 26.433C59.6185 26.433 60.385 26.0865 60.322 25.3935C60.322 25.3515 60.196 24.9 59.944 24.039C59.692 23.157 59.293 21.876 58.747 20.196C58.705 20.028 58.6105 19.944 58.4635 19.944H51.2185C51.0925 19.944 50.998 20.028 50.935 20.196C50.368 21.603 49.9165 22.737 49.5805 23.598C49.2655 24.459 49.0765 25.0575 49.0135 25.3935C48.9925 25.4145 48.982 25.4565 48.982 25.5195C48.982 26.1075 49.8535 26.4015 51.5965 26.4015L51.2815 27.0945C50.8615 27.0315 50.368 26.9895 49.801 26.9685C49.234 26.9475 48.5935 26.937 47.8795 26.937C47.1865 26.937 46.5565 26.9475 45.9895 26.9685C45.4435 26.9895 44.9395 27.0315 44.4775 27.0945ZM51.6595 18.9045H58.0225C58.1485 18.9045 58.2115 18.8625 58.2115 18.7785C58.2115 18.7155 58.201 18.6735 58.18 18.6525L55.093 10.116C55.072 10.011 55.0405 9.9585 54.9985 9.9585C54.9355 9.9585 54.8935 10.0005 54.8725 10.0845L51.5335 18.6525C51.5125 18.6735 51.502 18.7155 51.502 18.7785C51.502 18.8625 51.5545 18.9045 51.6595 18.9045ZM66.9835 27.0945L67.2985 26.4645C67.3615 26.4855 67.435 26.496 67.519 26.496C67.603 26.496 67.687 26.496 67.771 26.496C68.422 26.496 68.9995 26.391 69.5035 26.181C70.1965 25.908 70.606 25.509 70.732 24.984C70.921 24.165 71.0155 21.939 71.0155 18.306C71.0155 11.355 70.795 7.6275 70.354 7.1235C69.997 6.7875 69.493 6.6195 68.842 6.6195C68.695 6.6195 68.527 6.63 68.338 6.651C68.149 6.672 67.96 6.7035 67.771 6.7455L68.0545 6.084C68.8525 6.168 69.577 6.231 70.228 6.273C70.9 6.315 71.5195 6.336 72.0865 6.336C72.3385 6.336 72.58 6.336 72.811 6.336C73.063 6.315 73.294 6.294 73.504 6.273C74.26 6.189 74.953 6.1365 75.583 6.1155C76.213 6.0735 76.78 6.0525 77.284 6.0525C82.303 6.0525 85.768 7.6275 87.679 10.7775C88.183 11.5965 88.5505 12.468 88.7815 13.392C89.0335 14.316 89.1595 15.282 89.1595 16.29C89.1595 17.991 88.8235 19.6395 88.1515 21.2355C87.5005 22.7055 86.713 23.787 85.789 24.48C83.521 26.181 80.707 27.0315 77.347 27.0315C76.99 27.0315 76.6225 27.021 76.2445 27C75.8665 26.979 75.478 26.9475 75.079 26.9055C74.386 26.8425 73.5565 26.811 72.5905 26.811C71.0575 26.811 69.1885 26.9055 66.9835 27.0945ZM77.662 26.244C78.124 26.244 78.5545 26.2125 78.9535 26.1495C81.1165 25.8345 82.744 25.1415 83.836 24.0705C85.474 22.4955 86.293 20.007 86.293 16.605C86.293 16.521 86.2825 16.4475 86.2615 16.3845C86.2615 16.3215 86.2615 16.248 86.2615 16.164C86.2405 13.707 85.432 11.607 83.836 9.864C82.366 8.268 80.6125 7.3335 78.5755 7.0605C78.2395 7.0185 77.9035 6.987 77.5675 6.966C77.2315 6.924 76.906 6.903 76.591 6.903C74.953 6.903 74.008 7.0605 73.756 7.3755C73.441 8.0265 73.2835 10.347 73.2835 14.337C73.2835 14.715 73.2835 15.114 73.2835 15.534C73.2835 15.933 73.294 16.353 73.315 16.794C73.315 17.865 73.336 19.0515 73.378 20.3535C73.42 21.6555 73.4725 23.073 73.5355 24.606C73.9975 25.698 75.373 26.244 77.662 26.244ZM2.6 54.06L2.84 53.43C4.6 53.45 5.61 53.01 5.87 52.11C6.11 51.29 6.23 49.09 6.23 45.51C6.23 38.95 6.02 35.43 5.6 34.95C5.22 34.63 4.72 34.47 4.1 34.47C3.96 34.47 3.8 34.48 3.62 34.5C3.44 34.52 3.25 34.55 3.05 34.59L3.35 33.99C3.97 34.07 5.31 34.16 7.37 34.26C7.45 34.26 7.69 34.25 8.09 34.23C8.51 34.21 9.09 34.17 9.83 34.11C10.67 34.05 11.39 34.02 11.99 34.02C13.97 34.02 15.42 34.38 16.34 35.1C17.38 35.9 17.9 37.11 17.9 38.73C17.9 39.99 17.58 41.12 16.94 42.12C16.08 43.44 14.88 44.32 13.34 44.76C12.9 44.88 12.44 44.98 11.96 45.06C11.5 45.12 11.03 45.15 10.55 45.15C10.41 45.15 10.26 45.15 10.1 45.15C9.96 45.13 9.81 45.11 9.65 45.09L9.95 44.55C10.87 44.59 11.77 44.43 12.65 44.07C13.85 43.61 14.69 42.92 15.17 42C15.61 41.24 15.83 40.4 15.83 39.48C15.83 38.24 15.44 37.2 14.66 36.36C13.86 35.46 12.78 35.01 11.42 35.01C10.44 35.01 9.8 35.04 9.5 35.1C8.96 35.18 8.66 35.45 8.6 35.91C8.54 36.57 8.49 37.4 8.45 38.4C8.41 39.4 8.39 40.57 8.39 41.91V46.23C8.39 49.77 8.51 51.9 8.75 52.62C8.91 52.92 9.51 53.14 10.55 53.28C10.89 53.32 11.18 53.36 11.42 53.4C11.68 53.42 11.89 53.43 12.05 53.43C12.23 53.43 12.35 53.42 12.41 53.4L12.11 54.03C11.85 54.01 11.58 53.99 11.3 53.97C11.02 53.93 10.74 53.9 10.46 53.88C9.92 53.84 9.42 53.81 8.96 53.79C8.52 53.77 8.12 53.76 7.76 53.76C7.62 53.76 7.49 53.76 7.37 53.76C7.25 53.76 7.13 53.77 7.01 53.79L2.6 54.06ZM30.3127 54.33C23.2927 54.33 19.7727 50.77 19.7527 43.65C19.7527 40.35 20.6827 37.9 22.5427 36.3C24.4027 34.68 26.9727 33.87 30.2527 33.87C33.5927 33.87 36.1927 34.69 38.0527 36.33C39.9327 37.95 40.8727 40.39 40.8727 43.65C40.8727 50.77 37.3527 54.33 30.3127 54.33ZM30.4927 53.43C32.1527 53.43 33.5627 53.02 34.7227 52.2C35.9027 51.38 36.8027 50.29 37.4227 48.93C38.0427 47.57 38.3527 46.07 38.3527 44.43C38.3527 43.13 38.1627 41.9 37.7827 40.74C37.4227 39.58 36.8827 38.55 36.1627 37.65C35.4627 36.75 34.6127 36.05 33.6127 35.55C32.6127 35.03 31.4827 34.77 30.2227 34.77C28.5627 34.77 27.1327 35.15 25.9327 35.91C24.7527 36.65 23.8527 37.67 23.2327 38.97C22.6127 40.25 22.3027 41.71 22.3027 43.35C22.3027 44.67 22.4927 45.93 22.8727 47.13C23.2527 48.33 23.8027 49.41 24.5227 50.37C25.2427 51.31 26.1027 52.06 27.1027 52.62C28.1027 53.16 29.2327 53.43 30.4927 53.43ZM56.8681 54.21C56.8081 54.21 56.7381 54.21 56.6581 54.21C56.5981 54.21 56.5281 54.2 56.4481 54.18C54.2081 54.02 52.4481 53.9 51.1681 53.82C49.9081 53.74 49.1381 53.7 48.8581 53.7C48.5381 53.7 48.2381 53.71 47.9581 53.73C47.6781 53.73 47.4081 53.74 47.1481 53.76C46.9081 53.78 46.4181 53.82 45.6781 53.88C44.9381 53.92 43.9381 53.99 42.6781 54.09L42.9481 53.46C43.0081 53.48 43.0781 53.5 43.1581 53.52C43.2381 53.52 43.3181 53.52 43.3981 53.52C43.9781 53.52 44.5381 53.41 45.0781 53.19C45.7581 52.93 46.1581 52.54 46.2781 52.02C46.4781 51.24 46.5781 49.14 46.5781 45.72C46.5781 44.04 46.5781 42.74 46.5781 41.82C46.5781 40.88 46.5681 40.32 46.5481 40.14C46.4881 37.08 46.2781 35.37 45.9181 35.01C45.4981 34.63 44.8781 34.44 44.0581 34.44C43.9581 34.44 43.8481 34.45 43.7281 34.47C43.6081 34.47 43.4881 34.47 43.3681 34.47L43.6681 33.9C44.6481 34.04 45.9881 34.13 47.6881 34.17L56.2381 34.08C56.4381 34.1 56.5381 34.25 56.5381 34.53C56.5381 34.63 56.5181 34.76 56.4781 34.92C56.4581 35.08 56.4281 35.27 56.3881 35.49L56.1181 36.48L55.8181 38.25L55.2181 38.1C55.5381 37.26 55.6981 36.7 55.6981 36.42C55.6981 35.8 55.1081 35.41 53.9281 35.25C53.7281 35.23 53.4681 35.22 53.1481 35.22C52.8281 35.2 52.4581 35.19 52.0381 35.19H51.5581C51.0181 35.19 50.5481 35.2 50.1481 35.22C49.7481 35.24 49.4281 35.27 49.1881 35.31C48.8881 36.39 48.7381 38.98 48.7381 43.08L55.0981 43.02C55.2981 43.02 55.3981 43.14 55.3981 43.38C55.3981 43.46 55.3881 43.57 55.3681 43.71C55.3481 43.83 55.3081 44 55.2481 44.22C55.2081 44.42 55.1681 44.61 55.1281 44.79C55.1081 44.95 55.0981 45.08 55.0981 45.18C55.0981 45.22 55.0981 45.3 55.0981 45.42C55.1181 45.54 55.1281 45.7 55.1281 45.9L54.5281 46.05L54.7081 45.39C54.7081 44.53 54.0981 44.09 52.8781 44.07C51.6781 44.01 50.6781 43.98 49.8781 43.98C49.6781 43.98 49.4781 43.98 49.2781 43.98C49.0781 43.98 48.8981 43.99 48.7381 44.01C48.7581 48.27 48.8781 50.94 49.0981 52.02C49.1581 52.4 49.3481 52.65 49.6681 52.77C49.9081 52.87 50.5381 52.98 51.5581 53.1C52.0181 53.16 52.4981 53.19 52.9981 53.19C55.0181 53.19 56.3581 52.95 57.0181 52.47C57.3781 52.21 57.7381 51.77 58.0981 51.15C58.4581 50.57 58.6681 50.09 58.7281 49.71L59.1481 49.86C58.9481 50.3 58.7881 50.76 58.6681 51.24C58.5481 51.7 58.4381 52.19 58.3381 52.71C58.2781 53.27 58.1481 53.65 57.9481 53.85C57.7481 54.09 57.3881 54.21 56.8681 54.21ZM62.7366 54.09L63.0066 53.46C63.0866 53.48 63.1666 53.5 63.2466 53.52C63.3466 53.52 63.4366 53.52 63.5166 53.52C65.1966 53.52 66.1366 53.03 66.3366 52.05C66.5166 50.61 66.6066 48.59 66.6066 45.99V41.79C66.6066 41.39 66.5966 40.9 66.5766 40.32C66.5566 39.74 66.5266 39.05 66.4866 38.25C66.4266 36.61 66.3666 35.7 66.3066 35.52C66.2066 35.2 65.8666 35.04 65.2866 35.04C62.5266 35.04 60.9766 35.31 60.6366 35.85C60.1366 36.65 59.8466 37.64 59.7666 38.82L59.1966 38.58L59.8266 33.9C62.4666 34.08 65.0966 34.17 67.7166 34.17C71.0166 34.17 74.0166 34.08 76.7166 33.9C76.4766 34.56 76.2366 35.49 75.9966 36.69C75.7566 37.79 75.6366 38.51 75.6366 38.85L75.0966 38.64C75.2766 37.98 75.3666 37.42 75.3666 36.96C75.3666 36.52 75.2866 36.16 75.1266 35.88C74.8666 35.32 73.1966 35.04 70.1166 35.04C69.5966 35.04 69.2766 35.22 69.1566 35.58C69.0766 35.82 69.0166 36.46 68.9766 37.5C68.9366 38.52 68.9166 39.95 68.9166 41.79V45.78C68.9166 47.26 68.9266 48.53 68.9466 49.59C68.9866 50.63 69.0466 51.46 69.1266 52.08C69.2066 52.62 69.6766 53.01 70.5366 53.25C71.0166 53.37 71.4966 53.43 71.9766 53.43C72.0766 53.43 72.1766 53.43 72.2766 53.43C72.3766 53.43 72.4766 53.42 72.5766 53.4L72.2166 54.09C71.5566 53.89 70.1866 53.79 68.1066 53.79H67.6566C67.2566 53.79 66.6466 53.82 65.8266 53.88C65.0066 53.92 63.9766 53.99 62.7366 54.09ZM82.0979 54.57C80.5579 54.57 79.4079 54.37 78.6479 53.97C78.5079 53.89 78.4379 53.76 78.4379 53.58C78.4979 52.44 78.5279 51.45 78.5279 50.61V49.53L79.1879 49.29C79.1879 50.63 79.2179 51.42 79.2779 51.66C79.3979 52.22 79.8579 52.7 80.6579 53.1C81.4579 53.5 82.2979 53.7 83.1779 53.7C83.9379 53.7 84.6179 53.54 85.2179 53.22C86.3179 52.62 86.8679 51.51 86.8679 49.89C86.8679 49.09 86.7179 48.35 86.4179 47.67C85.9579 46.65 85.0379 45.73 83.6579 44.91C82.6179 44.29 81.8179 43.82 81.2579 43.5C80.7179 43.16 80.4279 42.97 80.3879 42.93C79.3279 42.05 78.7979 40.93 78.7979 39.57C78.7979 37.97 79.4179 36.61 80.6579 35.49C81.8379 34.39 83.3479 33.84 85.1879 33.84H85.2179C86.3579 33.84 87.2979 34.01 88.0379 34.35C88.4979 34.59 88.7279 34.81 88.7279 35.01V35.13C88.3079 36.23 88.0979 37.43 88.0979 38.73L87.4679 38.46C87.5879 38.16 87.6479 37.75 87.6479 37.23C87.6479 36.45 87.4279 35.88 86.9879 35.52C86.2479 34.96 85.3879 34.68 84.4079 34.68C83.4079 34.68 82.5879 34.97 81.9479 35.55C81.2079 36.21 80.8379 37.12 80.8379 38.28C80.8379 39.5 81.3679 40.55 82.4279 41.43C82.6079 41.59 82.9679 41.85 83.5079 42.21C84.0679 42.55 84.8079 43 85.7279 43.56C87.1479 44.4 88.0979 45.21 88.5779 45.99C89.0979 46.87 89.3579 47.81 89.3579 48.81C89.3579 49.83 89.1079 50.77 88.6079 51.63C88.0479 52.55 87.3179 53.23 86.4179 53.67C85.2579 54.27 83.8179 54.57 82.0979 54.57ZM5.5905 73.4085C4.48683 73.4085 3.66267 73.2652 3.118 72.9785C3.01767 72.9212 2.9675 72.828 2.9675 72.699C3.0105 71.882 3.032 71.1725 3.032 70.5705V69.7965L3.505 69.6245C3.505 70.5848 3.5265 71.151 3.5695 71.323C3.6555 71.7243 3.98517 72.0683 4.5585 72.355C5.13183 72.6417 5.73383 72.785 6.3645 72.785C6.90917 72.785 7.3965 72.6703 7.8265 72.441C8.61483 72.011 9.009 71.2155 9.009 70.0545C9.009 69.4812 8.9015 68.9508 8.6865 68.4635C8.35683 67.7325 7.6975 67.0732 6.7085 66.4855C5.96317 66.0412 5.38983 65.7043 4.9885 65.475C4.6015 65.2313 4.39367 65.0952 4.365 65.0665C3.60533 64.4358 3.2255 63.6332 3.2255 62.6585C3.2255 61.5118 3.66983 60.5372 4.5585 59.7345C5.40417 58.9462 6.48633 58.552 7.805 58.552H7.8265C8.6435 58.552 9.31717 58.6738 9.8475 58.9175C10.1772 59.0895 10.342 59.2472 10.342 59.3905V59.4765C10.041 60.2648 9.8905 61.1248 9.8905 62.0565L9.439 61.863C9.525 61.648 9.568 61.3542 9.568 60.9815C9.568 60.4225 9.41033 60.014 9.095 59.756C8.56467 59.3547 7.94833 59.154 7.246 59.154C6.52933 59.154 5.94167 59.3618 5.483 59.7775C4.95267 60.2505 4.6875 60.9027 4.6875 61.734C4.6875 62.6083 5.06733 63.3608 5.827 63.9915C5.956 64.1062 6.214 64.2925 6.601 64.5505C7.00233 64.7942 7.53267 65.1167 8.192 65.518C9.20967 66.12 9.8905 66.7005 10.2345 67.2595C10.6072 67.8902 10.7935 68.5638 10.7935 69.2805C10.7935 70.0115 10.6143 70.6852 10.256 71.3015C9.85467 71.9608 9.3315 72.4482 8.6865 72.7635C7.85517 73.1935 6.82317 73.4085 5.5905 73.4085ZM19.9392 73.2365C14.9082 73.2365 12.3856 70.6852 12.3712 65.5825C12.3712 63.2175 13.0377 61.4617 14.3707 60.315C15.7037 59.154 17.5456 58.5735 19.8962 58.5735C22.2899 58.5735 24.1532 59.1612 25.4862 60.3365C26.8336 61.4975 27.5072 63.2462 27.5072 65.5825C27.5072 70.6852 24.9846 73.2365 19.9392 73.2365ZM20.0682 72.5915C21.2579 72.5915 22.2684 72.2977 23.0997 71.71C23.9454 71.1223 24.5904 70.3412 25.0347 69.3665C25.4791 68.3918 25.7012 67.3168 25.7012 66.1415C25.7012 65.2098 25.5651 64.3283 25.2927 63.497C25.0347 62.6657 24.6477 61.9275 24.1317 61.2825C23.6301 60.6375 23.0209 60.1358 22.3042 59.7775C21.5876 59.4048 20.7777 59.2185 19.8747 59.2185C18.6851 59.2185 17.6602 59.4908 16.8002 60.0355C15.9546 60.5658 15.3096 61.2968 14.8652 62.2285C14.4209 63.1458 14.1987 64.1922 14.1987 65.3675C14.1987 66.3135 14.3349 67.2165 14.6072 68.0765C14.8796 68.9365 15.2737 69.7105 15.7897 70.3985C16.3057 71.0722 16.9221 71.6097 17.6387 72.011C18.3554 72.398 19.1652 72.5915 20.0682 72.5915ZM37.6161 73.258C35.6811 73.258 34.0184 72.8567 32.6281 72.054C30.7504 70.9647 29.6468 69.2017 29.3171 66.765C29.3028 66.5643 29.2813 66.3637 29.2526 66.163C29.2383 65.9623 29.2311 65.7617 29.2311 65.561C29.2311 63.411 29.9979 61.6982 31.5316 60.4225C32.9649 59.2472 34.8068 58.6308 37.0571 58.5735C37.1718 58.5592 37.2793 58.552 37.3796 58.552C37.4943 58.552 37.6018 58.552 37.7021 58.552C39.7948 58.552 41.7226 58.8817 43.4856 59.541L43.4211 59.6915C43.1918 59.6915 42.9696 60.1215 42.7546 60.9815C42.5826 61.7125 42.4966 62.3288 42.4966 62.8305V62.981L42.1956 62.9165C42.2099 62.8162 42.2171 62.723 42.2171 62.637C42.2171 62.551 42.2171 62.4722 42.2171 62.4005C42.2171 61.7842 42.0809 61.3112 41.8086 60.9815C41.5506 60.6232 41.0418 60.2863 40.2821 59.971C39.3791 59.5983 38.2683 59.412 36.9496 59.412C35.1436 59.412 33.7318 59.8635 32.7141 60.7665C31.6821 61.6838 31.1661 63.067 31.1661 64.916C31.1661 67.0517 31.7466 68.8218 32.9076 70.2265C34.0973 71.6312 35.6596 72.3335 37.5946 72.3335C37.7236 72.3335 37.8168 72.3263 37.8741 72.312C39.4938 72.269 41.2568 71.8175 43.1631 70.9575V71.366C42.0308 72.0253 41.3428 72.4123 41.0991 72.527C40.5544 72.7563 39.9883 72.9355 39.4006 73.0645C38.8273 73.1935 38.2324 73.258 37.6161 73.258ZM44.4432 73.0645L44.6582 72.613C44.7155 72.6273 44.7729 72.6417 44.8302 72.656C44.9019 72.656 44.9735 72.656 45.0452 72.656C46.1919 72.656 46.8512 72.312 47.0232 71.624C47.1952 70.9073 47.2812 69.3307 47.2812 66.894C47.2812 62.1927 47.1235 59.6772 46.8082 59.3475C46.5359 59.1182 46.1775 59.0035 45.7332 59.0035C45.6329 59.0035 45.5182 59.0107 45.3892 59.025C45.2602 59.0393 45.1312 59.0608 45.0022 59.0895L45.1957 58.6165C45.6687 58.6738 46.629 58.7383 48.0767 58.81C48.65 58.7813 49.1875 58.7527 49.6892 58.724C50.2052 58.681 50.6925 58.638 51.1512 58.595L50.8502 59.025C50.7929 59.025 50.7284 59.025 50.6567 59.025C50.5994 59.0107 50.542 59.0035 50.4847 59.0035C49.9257 59.0035 49.4957 59.1827 49.1947 59.541C48.951 60.0713 48.8292 61.7412 48.8292 64.5505C48.8292 64.9088 48.8292 65.2887 48.8292 65.69C48.8292 66.077 48.8364 66.4855 48.8507 66.9155C48.8794 68.1768 48.908 69.2017 48.9367 69.99C48.9797 70.764 49.0299 71.3087 49.0872 71.624C49.1445 72.011 49.4742 72.2905 50.0762 72.4625C50.4059 72.5485 50.7355 72.5915 51.0652 72.5915C51.1369 72.5915 51.2085 72.5915 51.2802 72.5915C51.3519 72.5915 51.4235 72.5843 51.4952 72.57L51.2587 73.0645C50.8717 72.9498 49.768 72.8638 47.9477 72.8065L44.4432 73.0645ZM62.5282 73.1505C62.4852 73.1505 62.435 73.1505 62.3777 73.1505C62.3347 73.1505 62.2845 73.1433 62.2272 73.129C60.6219 73.0143 59.3605 72.9283 58.4432 72.871C57.5402 72.8137 56.9884 72.785 56.7877 72.785C56.5584 72.785 56.3434 72.7922 56.1427 72.8065C55.942 72.8065 55.7485 72.8137 55.5622 72.828C55.3902 72.8423 55.039 72.871 54.5087 72.914C53.9784 72.9427 53.2617 72.9928 52.3587 73.0645L52.5522 72.613C52.5952 72.6273 52.6454 72.6417 52.7027 72.656C52.76 72.656 52.8174 72.656 52.8747 72.656C53.2904 72.656 53.6917 72.5772 54.0787 72.4195C54.566 72.2332 54.8527 71.9537 54.9387 71.581C55.082 71.022 55.1537 69.517 55.1537 67.066C55.1537 65.862 55.1537 64.9303 55.1537 64.271C55.1537 63.5973 55.1465 63.196 55.1322 63.067C55.0892 60.874 54.9387 59.6485 54.6807 59.3905C54.3797 59.1182 53.9354 58.982 53.3477 58.982C53.276 58.982 53.1972 58.9892 53.1112 59.0035C53.0252 59.0035 52.9392 59.0035 52.8532 59.0035L53.0682 58.595C53.7705 58.6953 54.7309 58.7598 55.9492 58.7885L62.0767 58.724C62.22 58.7383 62.2917 58.8458 62.2917 59.0465C62.2917 59.1182 62.2774 59.2113 62.2487 59.326C62.2344 59.4407 62.2129 59.5768 62.1842 59.7345L61.9907 60.444L61.7757 61.7125L61.3457 61.605C61.575 61.003 61.6897 60.6017 61.6897 60.401C61.6897 59.9567 61.2669 59.6772 60.4212 59.5625C60.2779 59.5482 60.0915 59.541 59.8622 59.541C59.6329 59.5267 59.3677 59.5195 59.0667 59.5195H58.7227C58.3357 59.5195 57.9989 59.5267 57.7122 59.541C57.4255 59.5553 57.1962 59.5768 57.0242 59.6055C56.8092 60.3795 56.7017 62.2357 56.7017 65.174L61.2597 65.131C61.403 65.131 61.4747 65.217 61.4747 65.389C61.4747 65.4463 61.4675 65.5252 61.4532 65.6255C61.4389 65.7115 61.4102 65.8333 61.3672 65.991C61.3385 66.1343 61.3099 66.2705 61.2812 66.3995C61.2669 66.5142 61.2597 66.6073 61.2597 66.679C61.2597 66.7077 61.2597 66.765 61.2597 66.851C61.274 66.937 61.2812 67.0517 61.2812 67.195L60.8512 67.3025L60.9802 66.8295C60.9802 66.2132 60.543 65.8978 59.6687 65.8835C58.8087 65.8405 58.092 65.819 57.5187 65.819C57.3754 65.819 57.232 65.819 57.0887 65.819C56.9454 65.819 56.8164 65.8262 56.7017 65.8405C56.716 68.8935 56.802 70.807 56.9597 71.581C57.0027 71.8533 57.1389 72.0325 57.3682 72.1185C57.5402 72.1902 57.9917 72.269 58.7227 72.355C59.0524 72.398 59.3964 72.4195 59.7547 72.4195C61.2024 72.4195 62.1627 72.2475 62.6357 71.9035C62.8937 71.7172 63.1517 71.4018 63.4097 70.9575C63.6677 70.5418 63.8182 70.1978 63.8612 69.9255L64.1622 70.033C64.0189 70.3483 63.9042 70.678 63.8182 71.022C63.7322 71.3517 63.6534 71.7028 63.5817 72.0755C63.5387 72.4768 63.4455 72.7492 63.3022 72.8925C63.1589 73.0645 62.9009 73.1505 62.5282 73.1505ZM66.734 73.0645L66.9275 72.613C66.9848 72.6273 67.0421 72.6417 67.0995 72.656C67.1711 72.656 67.2356 72.656 67.293 72.656C68.497 72.656 69.1706 72.3048 69.314 71.6025C69.443 70.5705 69.5075 69.1228 69.5075 67.2595V64.2495C69.5075 63.9628 69.5003 63.6117 69.486 63.196C69.4716 62.7803 69.4501 62.2858 69.4215 61.7125C69.3785 60.5372 69.3355 59.885 69.2925 59.756C69.2208 59.5267 68.9771 59.412 68.5615 59.412C66.5835 59.412 65.4726 59.6055 65.229 59.9925C64.8706 60.5658 64.6628 61.2753 64.6055 62.121L64.197 61.949L64.6485 58.595C66.5405 58.724 68.4253 58.7885 70.303 58.7885C72.668 58.7885 74.818 58.724 76.753 58.595C76.581 59.068 76.409 59.7345 76.237 60.5945C76.065 61.3828 75.979 61.8988 75.979 62.1425L75.592 61.992C75.721 61.519 75.7855 61.1177 75.7855 60.788C75.7855 60.4727 75.7281 60.2147 75.6135 60.014C75.4271 59.6127 74.2303 59.412 72.023 59.412C71.6503 59.412 71.421 59.541 71.335 59.799C71.2776 59.971 71.2346 60.4297 71.206 61.175C71.1773 61.906 71.163 62.9308 71.163 64.2495V67.109C71.163 68.1697 71.1701 69.0798 71.1845 69.8395C71.2131 70.5848 71.2561 71.1797 71.3135 71.624C71.3708 72.011 71.7076 72.2905 72.324 72.4625C72.668 72.5485 73.012 72.5915 73.356 72.5915C73.4276 72.5915 73.4993 72.5915 73.571 72.5915C73.6426 72.5915 73.7143 72.5843 73.786 72.57L73.528 73.0645C73.055 72.9212 72.0731 72.8495 70.5825 72.8495H70.26C69.9733 72.8495 69.5361 72.871 68.9485 72.914C68.3608 72.9427 67.6226 72.9928 66.734 73.0645ZM79.728 73.0645L79.943 72.613C80.0004 72.6273 80.0577 72.6417 80.115 72.656C80.1867 72.656 80.2655 72.656 80.3515 72.656C81.5555 72.656 82.2292 72.312 82.3725 71.624C82.4442 71.2513 82.5015 70.8715 82.5445 70.4845C82.5875 70.0832 82.609 69.6675 82.609 69.2375C82.609 67.6178 82.3582 66.1988 81.8565 64.9805C81.5842 64.3068 81.2689 63.6475 80.9105 63.0025C80.5522 62.3432 80.1652 61.6982 79.7495 61.0675C79.4342 60.5802 79.1619 60.1932 78.9325 59.9065C78.7175 59.6198 78.5527 59.4407 78.438 59.369C78.1944 59.1683 77.6784 59.068 76.89 59.068C76.546 59.068 76.3812 59.0608 76.3955 59.0465L76.4815 58.6165C76.5389 58.6308 76.718 58.6452 77.019 58.6595C77.3344 58.6738 77.7715 58.6953 78.3305 58.724C78.6172 58.7383 78.9182 58.7527 79.2335 58.767C79.5489 58.767 79.8785 58.767 80.2225 58.767C80.3802 58.767 80.8819 59.6342 81.7275 61.3685C82.6019 63.0885 83.2684 64.5577 83.727 65.776C83.9994 65.174 84.3075 64.529 84.6515 63.841C85.0099 63.153 85.3969 62.422 85.8125 61.648C86.6439 60.1573 87.21 59.24 87.511 58.896C87.554 58.8387 87.7332 58.81 88.0485 58.81L90.951 58.681L90.7145 59.154C90.6572 59.1397 90.5927 59.1325 90.521 59.1325C90.4494 59.1325 90.3777 59.1325 90.306 59.1325C89.446 59.1325 88.801 59.3762 88.371 59.8635C87.4537 60.9098 86.3214 62.6585 84.974 65.1095C84.415 66.1415 84.1355 67.5318 84.1355 69.2805C84.1355 69.6388 84.1427 70.0187 84.157 70.42C84.1857 70.807 84.2287 71.2083 84.286 71.624C84.329 72.0253 84.6659 72.3048 85.2965 72.4625C85.6405 72.5485 85.9917 72.5915 86.35 72.5915C86.4217 72.5915 86.4934 72.5915 86.565 72.5915C86.6367 72.5915 86.7084 72.5843 86.78 72.57L86.5435 73.0645C86.0562 72.9212 85.0744 72.8495 83.598 72.8495H83.2755C82.9745 72.8495 82.5302 72.871 81.9425 72.914C81.3549 72.9427 80.6167 72.9928 79.728 73.0645Z" fill="#FEE66A"/>
<path d="M2 28.197H90.4195V28.3545H2V28.197Z" fill="#FEE66A"/>
<path d="M2 55.14H90.3479V55.29H2V55.14Z" fill="#FEE66A"/>
<path d="M2 73.817H90.3275V73.9245H2V73.817Z" fill="#FEE66A"/>
</svg>
